<svg width="38" height="20" viewBox="0 0 38 20" fill="none" xmlns="http://www.w3.org/2000/svg">
  <title>VeloriaCRM V Logo</title>

  <!-- Основная форма буквы V -->
  <path
    d="M10 2C9.3 0.7 7.8 0.1 6.5 0.8C5.2 1.5 4.7 3.1 5.4 4.4L12.8 17.8C13.4 18.9 14.6 19.5 15.9 19.5C17.1 19.5 18.3 18.9 18.9 17.8L26.3 4.4C27 3.1 26.5 1.5 25.2 0.8C23.9 0.1 22.4 0.7 21.7 2L15.9 12.5L10 2Z"
    fill="#FF00FC"
  />

  <!-- Градиентный бликовый слой -->
  <path
    d="M10 2C9.3 0.7 7.8 0.1 6.5 0.8C5.2 1.5 4.7 3.1 5.4 4.4L12.8 17.8C13.4 18.9 14.6 19.5 15.9 19.5C17.1 19.5 18.3 18.9 18.9 17.8L26.3 4.4C27 3.1 26.5 1.5 25.2 0.8C23.9 0.1 22.4 0.7 21.7 2L15.9 12.5L10 2Z"
    fill="url(#vGradient)"
    fill-opacity="0.4"
  />

  <defs>
    <linearGradient id="vGradient" x1="8" y1="0" x2="20" y2="22" gradientUnits="userSpaceOnUse">
      <stop offset="0" stop-color="#FF00FC" stop-opacity="1"/>
      <stop offset="1" stop-color="#FF00FC" stop-opacity="0"/>
    </linearGradient>
  </defs>
</svg>